<?xml version="1.0" standalone="no"?>
<!DOCTYPE svg PUBLIC "-//W3C//DTD SVG 20010904//EN"
 "http://www.w3.org/TR/2001/REC-SVG-20010904/DTD/svg10.dtd">
<svg version="1.0" xmlns="http://www.w3.org/2000/svg"
 width="16.000000pt" height="16.000000pt" viewBox="0 0 16.000000 16.000000"
 preserveAspectRatio="xMidYMid meet">
<metadata>
Created by potrace 1.11, written by Peter Selinger 2001-2013
</metadata>
<g transform="translate(0.000000,16.000000) scale(0.003125,-0.003125)"
fill="#000000" stroke="none">
<path d="M0 2560 l0 -2560 2560 0 2560 0 0 2560 0 2560 -2560 0 -2560 0 0
-2560z m4222 1879 c210 -44 369 -205 414 -419 19 -91 14 -275 -11 -365 -60
-219 -233 -394 -450 -451 -67 -18 -197 -17 -270 1 -83 22 -170 71 -240 136
l-60 56 -720 -1225 c-396 -674 -750 -1269 -787 -1323 -124 -180 -228 -272
-352 -311 -89 -29 -233 -21 -308 15 -108 53 -182 154 -232 317 -14 47 -141
724 -281 1505 -218 1211 -260 1429 -284 1480 -20 43 -58 93 -130 168 -56 58
-106 118 -111 132 -6 15 -10 55 -10 89 0 77 24 119 90 156 l45 25 845 0 845 0
48 -24 c70 -34 100 -79 105 -155 5 -77 -9 -111 -80 -198 -76 -92 -96 -127
-108 -188 -9 -46 3 -129 100 -738 61 -378 114 -695 118 -705 5 -13 115 176
416 715 224 403 446 789 491 859 174 262 342 396 557 443 78 17 288 20 360 5z"/>
</g>
</svg>
