<?xml version="1.0" standalone="no"?>
<!DOCTYPE svg PUBLIC "-//W3C//DTD SVG 20010904//EN"
 "http://www.w3.org/TR/2001/REC-SVG-20010904/DTD/svg10.dtd">
<svg version="1.0" xmlns="http://www.w3.org/2000/svg"
 width="16.000000pt" height="16.000000pt" viewBox="0 0 16.000000 16.000000"
 preserveAspectRatio="xMidYMid meet">
<metadata>
Created by potrace 1.11, written by Peter Selinger 2001-2013
</metadata>
<g transform="translate(0.000000,16.000000) scale(0.003125,-0.003125)"
fill="#000000" stroke="none">
<path d="M0 2560 l0 -2560 2560 0 2560 0 0 2560 0 2560 -2560 0 -2560 0 0
-2560z m4111 2228 c25 -14 46 -37 60 -65 19 -39 20 -57 17 -250 -3 -201 -4
-210 -29 -258 -14 -27 -504 -699 -1088 -1492 -583 -794 -1061 -1445 -1061
-1448 0 -3 347 -5 770 -5 l770 0 0 28 c-1 15 -7 96 -14 180 -10 102 -11 164
-5 187 14 49 54 93 97 105 20 5 129 10 242 10 194 0 208 -1 250 -22 33 -17 51
-35 68 -68 l22 -45 -2 -632 c-3 -623 -3 -632 -24 -660 -11 -15 -36 -38 -54
-51 -32 -21 -41 -22 -259 -22 -259 0 -276 5 -311 83 -17 37 -19 57 -13 165 l6
122 -1232 0 c-1364 0 -1275 -4 -1324 64 -21 30 -22 39 -22 256 0 220 1 226 25
275 14 28 496 696 1071 1485 574 789 1048 1441 1052 1448 7 9 -134 12 -689 12
l-697 0 6 -75 c4 -41 9 -144 13 -227 5 -143 4 -155 -15 -186 -11 -18 -35 -41
-53 -52 -30 -18 -51 -20 -266 -20 -214 0 -236 2 -272 20 -26 13 -47 34 -60 60
-19 38 -20 58 -20 512 0 471 0 473 23 512 12 21 38 47 57 57 33 18 92 19 1478
19 l1444 0 39 -22z"/>
</g>
</svg>
